# xmcd CD database file
#
# Track frame offsets:
#	150
#	19624
#	39239
#	53137
#	75665
#	93193
#	117720
#	141044
#	171013
#	198222
#	219586
#	240664
#	265796
#	292881
#
# Disc length: 4200 seconds
#
# Revision: 0
# Processed by: cddbd v1.5.2PL0 Copyright (c) Steve Scherf et al.
# Submitted via: CDex 1.70beta2
#
DISCID=b710660e
DTITLE=Various Artist - The Very Best Of Fusion Jazz
DYEAR=2008
DGENRE=Jazz
TTITLE0=After the Love Has Gone - Russ Freeman and David Benoit
TTITLE1=California Roll - Lee Ritenour
TTITLE2=Don't Let it Get You Down - Crusaders
TTITLE3=Early A.M Attitude - Dave Grusin
TTITLE4=Fountain of You - Special EFX
TTITLE5=Hello Tomorrow - Larry Carlton
TTITLE6=Morning Rays - Tom Scott
TTITLE7=Morning Sprite - Chick Corea Akoustic Band
TTITLE8=River Waltz - Yellowjackets
TTITLE9=Smile - Kevin Eubanks
TTITLE10=Take Five - Acoustic Alchemy
TTITLE11=Take Me with You - The Rippingtones
TTITLE12=The Meaning of the Blues - Michael Brecker
TTITLE13=Westwood Moon - Sypro Gyra
EXTD=YEAR: 2008
EXTT0=
EXTT1=
EXTT2=
EXTT3=
EXTT4=
EXTT5=
EXTT6=
EXTT7=
EXTT8=
EXTT9=
EXTT10=
EXTT11=
EXTT12=
EXTT13=
PLAYORDER=
